<svg height="187.366974" viewBox="10.5 0 14.4 8.68" width="310" xmlns="http://www.w3.org/2000/svg"><g fill="none" fill-rule="evenodd" transform="matrix(.26458333 0 0 .26458333 .10983 .124)"><path d="m81.97 14.91-5.919 10.197-5.05.02 10.969-19.193 10.928 19.193h-5.13l-5.798-10.218zm-15.938 5.778h5.656l-2.626 4.439h-7.372l.02-5.405v-13.67h4.343l-.02 14.636zm-15.512-14.635c5.393.02 9.756 4.28 9.736 9.546-.02 5.247-4.383 9.508-9.777 9.508-5.373-.02-9.736-4.28-9.736-9.547.02-5.247 4.383-9.507 9.777-9.507zm-.02 14.616c2.888 0 5.21-2.269 5.21-5.07.021-2.8-2.322-5.089-5.19-5.089-2.869-.02-5.212 2.269-5.212 5.07-.02 2.8 2.323 5.089 5.191 5.089z" fill="#1A5C35"/></g></svg>
