<svg width="369" height="62" viewBox="62 41 369 62" fill="none" xmlns="http://www.w3.org/2000/svg">
<path d="M82.6443 55.2699L87.7673 44.3378C88.6746 42.4028 90.6224 41.1675 92.7659 41.1675H108.326C110.746 41.1675 112.347 43.6692 111.324 45.8565L106.205 56.7886C105.298 58.7235 103.35 59.9589 101.207 59.9589H85.6416C83.2224 59.9589 81.6214 57.4572 82.6443 55.2699ZM142.463 71.9006H115.873C113.73 71.9006 111.782 73.1359 110.875 75.0708L100.148 97.9756C99.1253 100.159 100.726 102.665 103.146 102.665H129.73C131.874 102.665 133.822 101.429 134.729 99.4944L145.46 76.5896C146.483 74.4067 144.882 71.9006 142.463 71.9006ZM156.858 41.1675H123.651C121.508 41.1675 119.56 42.4028 118.653 44.3378L110.87 60.9551C109.447 63.8996 106.423 65.9319 102.919 65.9319H81.1723C79.0287 65.9319 77.0809 67.1673 76.1737 69.1022L62.65 97.9801C61.6271 100.163 63.2192 102.665 65.6384 102.669C71.94 102.669 82.4041 102.669 87.8341 102.669C89.9776 102.669 91.9165 101.434 92.8237 99.4988L106.218 70.9043C107.642 67.9599 110.666 65.9275 114.17 65.9275H146.945C149.089 65.9275 151.037 64.6922 151.944 62.7572L159.86 45.852C160.883 43.6692 159.282 41.1675 156.862 41.1675H156.858Z" fill="#1A5C35"/>
<path d="M170.59 93.034L178.128 57.8334H187L185.932 62.6818H186.266C187.289 61.132 188.654 59.8258 190.366 58.7632C192.078 57.7005 194.2 57.1692 196.739 57.1692C197.584 57.1692 198.562 57.2799 199.674 57.5013L197.806 66.069C196.783 65.8919 195.894 65.8033 195.138 65.8033C191.936 65.8033 189.268 66.9235 187.133 69.1596C184.999 71.3956 183.464 74.6633 182.53 78.9538L179.529 93.034H170.59Z" fill="#1A5C35"/>
<path d="M216.418 93.6985C212.771 93.6985 209.778 92.959 207.444 91.4713C205.109 89.988 203.383 88.0309 202.276 85.5957C201.164 83.1604 200.608 80.5702 200.608 77.825C200.608 75.3897 201.044 72.9411 201.911 70.4837C202.779 68.0263 204.055 65.7992 205.745 63.8067C207.435 61.8142 209.512 60.2113 211.98 58.9893C214.448 57.7716 217.303 57.165 220.549 57.165C223.796 57.165 226.242 57.7628 228.287 58.9583C230.333 60.1538 231.912 61.7168 233.024 63.6428C234.135 65.5689 234.825 67.6721 235.091 69.9524C235.358 72.2327 235.247 74.4599 234.758 76.6295L234.491 77.8914H209.276C209.32 80.4595 209.979 82.5981 211.246 84.3028C212.513 86.0075 214.457 86.8576 217.081 86.8576C218.593 86.8576 219.847 86.6141 220.847 86.127C221.848 85.64 222.648 85.0643 223.249 84.4002C223.849 83.736 224.392 82.9169 224.881 81.9428H233.286C232.663 83.4925 231.974 84.8562 231.218 86.0252C230.462 87.1985 229.448 88.3719 228.181 89.5452C226.913 90.7186 225.312 91.706 223.378 92.4986C221.443 93.2911 219.117 93.6941 216.409 93.6941L216.418 93.6985ZM210.281 72.1132H227.024C227.247 70.7405 227.136 69.4344 226.691 68.1946C226.246 66.9548 225.477 65.9497 224.392 65.1704C223.302 64.3956 221.892 64.0104 220.158 64.0104C217.668 64.0104 215.564 64.8074 213.852 66.4013C212.14 67.9953 210.952 69.8993 210.285 72.1132H210.281Z" fill="#1A5C35"/>
<path d="M259.31 57.1695C261.756 57.1695 263.722 57.568 265.211 58.365C266.701 59.162 267.822 60.0608 268.582 61.057C269.338 62.0533 269.828 62.8414 270.05 63.4126H270.517L271.718 57.8336H280.59L273.118 93.0343H264.18L265.18 88.518H264.78C263.98 89.5364 263.166 90.3909 262.347 91.0772C261.525 91.7635 260.444 92.3701 259.11 92.9015C257.776 93.4328 256.153 93.6985 254.24 93.6985C251.261 93.6985 248.779 92.99 246.8 91.5732C244.821 90.1563 243.34 88.2878 242.362 85.9632C241.384 83.6386 240.895 81.1281 240.895 78.4227C240.895 75.9432 241.304 73.4548 242.126 70.9487C242.949 68.447 244.15 66.1578 245.729 64.0723C247.307 61.9913 249.233 60.322 251.501 59.0601C253.769 57.7982 256.371 57.165 259.306 57.165L259.31 57.1695ZM260.711 64.4089C258.443 64.4089 256.486 65.0952 254.841 66.4678C253.195 67.8404 251.937 69.5539 251.07 71.6128C250.202 73.6717 249.767 75.7439 249.767 77.825C249.767 80.1274 250.354 82.142 251.537 83.8689C252.715 85.5957 254.592 86.4591 257.175 86.4591C259.488 86.4591 261.454 85.7728 263.077 84.4002C264.7 83.0276 265.945 81.314 266.812 79.2551C267.68 77.1962 268.111 75.1506 268.111 73.1094C268.111 70.7627 267.519 68.7259 266.345 66.9991C265.167 65.2723 263.286 64.4089 260.706 64.4089H260.711Z" fill="#1A5C35"/>
<path d="M282.324 93.0341L293.197 42.5576H302.069L291.263 93.0341H282.324Z" fill="#1A5C35"/>
<path d="M303.67 93.0342L309.674 64.94H303.737L305.271 57.8335H311.141L312.208 52.7858C312.653 50.8376 313.396 49.0355 314.441 47.3751C315.486 45.7147 316.962 44.3864 318.879 43.3901C320.791 42.3939 323.237 41.8936 326.217 41.8936C327.462 41.8936 328.974 42.0928 330.753 42.4913L329.352 48.9337C328.24 48.7123 327.395 48.6016 326.817 48.6016C325.083 48.6016 323.771 49.0134 322.882 49.8281C321.992 50.6472 321.392 51.7852 321.08 53.2508L320.08 57.8335H327.351L325.817 64.94H318.612L312.609 93.0342H303.67Z" fill="#1A5C35"/>
<path d="M347.164 57.1695C349.61 57.1695 351.575 57.568 353.065 58.365C354.555 59.162 355.675 60.0608 356.436 61.057C357.192 62.0533 357.681 62.8414 357.903 63.4126H358.37L359.571 57.8336H368.443L360.972 93.0343H352.033L353.034 88.518H352.634C351.833 89.5364 351.019 90.3909 350.201 91.0772C349.378 91.7635 348.298 92.3701 346.963 92.9015C345.629 93.4328 344.006 93.6985 342.094 93.6985C339.114 93.6985 336.633 92.99 334.654 91.5732C332.675 90.1563 331.194 88.2878 330.216 85.9632C329.237 83.6386 328.748 81.1281 328.748 78.4227C328.748 75.9432 329.157 73.4548 329.98 70.9487C330.803 68.447 332.003 66.1578 333.582 64.0723C335.161 61.9913 337.086 60.322 339.354 59.0601C341.622 57.7982 344.224 57.165 347.159 57.165L347.164 57.1695ZM348.564 64.4089C346.296 64.4089 344.34 65.0952 342.694 66.4678C341.049 67.8404 339.79 69.5539 338.923 71.6128C338.056 73.6717 337.62 75.7439 337.62 77.825C337.62 80.1274 338.207 82.142 339.39 83.8689C340.569 85.5957 342.445 86.4591 345.029 86.4591C347.341 86.4591 349.307 85.7728 350.93 84.4002C352.554 83.0276 353.799 81.314 354.666 79.2551C355.533 77.1962 355.964 75.1506 355.964 73.1094C355.964 70.7627 355.373 68.7259 354.199 66.9991C353.02 65.2723 351.139 64.4089 348.56 64.4089H348.564Z" fill="#1A5C35"/>
<path d="M384.915 93.6985C381.98 93.6985 379.578 93.3 377.711 92.503C375.843 91.706 374.375 90.7319 373.308 89.5807C372.241 88.4294 371.476 87.2694 371.009 86.0916C370.542 84.9182 370.195 83.5589 369.973 82.0048H378.645C378.867 82.9789 379.187 83.7892 379.61 84.4312C380.032 85.0732 380.712 85.64 381.646 86.127C382.58 86.6141 383.848 86.8576 385.449 86.8576C387.405 86.8576 388.895 86.4724 389.918 85.6975C390.941 84.9227 391.452 83.984 391.452 82.8726C391.452 81.8985 391.061 81.1458 390.287 80.6145C389.509 80.0831 388.562 79.6403 387.45 79.2861L383.247 78.0242C380.535 77.1829 378.422 75.9874 376.91 74.4377C375.398 72.888 374.642 70.8955 374.642 68.4603C374.642 66.4678 375.176 64.6214 376.243 62.9123C377.31 61.2076 378.889 59.8261 380.979 58.759C383.069 57.6964 385.627 57.165 388.651 57.165C391.319 57.165 393.507 57.5325 395.219 58.2587C396.931 58.9893 398.288 59.8881 399.288 60.9508C400.289 62.0134 401.023 63.0761 401.489 64.1388C401.956 65.2014 402.326 66.4633 402.592 67.9245H394.254C393.987 67.1275 393.654 66.4633 393.253 65.932C392.853 65.4007 392.239 64.9358 391.421 64.5373C390.598 64.1388 389.496 63.9395 388.117 63.9395C386.427 63.9395 385.137 64.3159 384.248 65.0686C383.359 65.8213 382.914 66.729 382.914 67.7917C382.914 68.6772 383.234 69.3989 383.879 69.9524C384.524 70.5059 385.382 70.9619 386.445 71.3162L390.447 72.5781C392.137 73.0208 393.694 73.6762 395.117 74.5351C396.54 75.3986 397.687 76.4834 398.554 77.7895C399.422 79.0957 399.857 80.6587 399.857 82.4741C399.857 84.5109 399.279 86.3838 398.123 88.0841C396.967 89.7888 395.277 91.1525 393.053 92.1665C390.83 93.1849 388.117 93.6941 384.915 93.6941V93.6985Z" fill="#1A5C35"/>
<path d="M419.803 93.6982C416.645 93.6982 414.275 93.0695 412.696 91.8032C411.117 90.5413 410.13 88.9384 409.73 86.9858C409.33 85.0376 409.33 83.0229 409.73 80.9419L413.199 64.9355H407.062L408.596 57.829H414.733L416.601 49.062H425.539L423.672 57.829H431.343L429.809 64.9355H422.137L418.669 81.2075C417.913 84.7497 419.336 86.5209 422.938 86.5209C423.827 86.5209 425.028 86.4102 426.54 86.1888L425.072 93.1625C423.027 93.5167 421.27 93.6938 419.803 93.6938V93.6982Z" fill="#1A5C35"/>
</svg>
