<svg xmlns="http://www.w3.org/2000/svg" viewBox="0 0 1088 320">
  <defs>
    <clipPath id="clip">
      <path fill="#1A5C35" d="M0 0h1088v320H0z"/>
    </clipPath>
  </defs>
  <g clip-path="url(#clip)" fill="#1A5C35">
    <path d="M408.791 250.5c-11.657 0-22.305-2.21-31.942-6.629S361.596 233.205 356 225.129l15.253-14.629c3.42 6.248 8.316 11.276 14.689 15.086 6.529 3.657 14.3 5.485 23.316 5.485 7.15 0 12.823-1.219 17.02-3.657 4.197-2.438 6.295-5.866 6.295-10.285 0-2.896-1.01-5.41-3.031-7.543-1.865-2.286-5.518-4.038-10.958-5.257l-24.481-5.029c-12.435-2.438-21.295-6.324-26.58-11.657-5.285-5.486-7.927-12.419-7.927-20.8 0-6.248 1.865-12.038 5.595-17.372 3.731-5.333 9.171-9.6 16.321-12.8 7.306-3.352 16.01-5.028 26.114-5.028 11.657 0 21.605 2.057 29.844 6.171 8.238 3.962 14.533 9.676 18.885 17.143l-17.253 14.172c-2.954-6.096-7.306-10.591-13.057-13.486-5.751-3.048-11.736-4.572-17.953-4.572-4.974 0-9.248.61-12.824 1.829-3.575 1.219-6.295 2.895-8.16 5.029-1.865 2.133-2.798 4.647-2.798 7.542 0 3.048 1.166 5.715 3.498 8 2.331 2.286 6.528 4.039 12.59 5.258l26.58 5.485c11.191 2.134 19.041 5.791 23.548 10.972 4.663 5.028 6.995 11.2 6.995 18.514s-1.943 13.79-5.829 19.429c-3.886 5.485-9.482 9.752-16.787 12.8-7.306 3.047-16.01 4.571-26.114 4.571Zm103.787 0c-7.617 0-14.689-1.371-21.217-4.114-6.373-2.743-11.503-7.162-15.389-13.257-3.886-6.096-5.828-14.019-5.828-23.772v-75.428h24.947v69.257c0 10.362 2.254 17.524 6.762 21.485 4.507 3.81 10.802 5.715 18.885 5.715 3.886 0 7.617-.61 11.192-1.829 3.73-1.371 7.072-3.428 10.025-6.171 2.954-2.896 5.207-6.553 6.762-10.972 1.71-4.419 2.565-9.6 2.565-15.543v-61.942h24.947v114.285h-21.916l-1.166-18.514c-4.042 7.162-9.482 12.419-16.321 15.771-6.839 3.353-14.922 5.029-24.248 5.029Zm82.808-2.286V133.929h22.15l1.632 29.714-3.264-3.2c2.176-6.553 5.285-11.962 9.326-16.229 4.197-4.419 9.093-7.619 14.689-9.6 5.751-1.981 11.813-2.971 18.186-2.971 8.238 0 15.621 1.6 22.15 4.8 6.684 3.047 11.968 7.695 15.854 13.943 3.886 6.247 5.829 14.171 5.829 23.771v74.057h-24.947V181.7c0-11.276-2.41-19.048-7.228-23.314-4.663-4.419-10.57-6.629-17.72-6.629-5.129 0-10.103 1.219-14.922 3.657-4.819 2.286-8.86 6.019-12.124 11.2-3.109 5.181-4.663 12.115-4.663 20.8v60.8h-24.948Zm173.297 2.286c-9.638 0-18.42-2.362-26.347-7.086-7.772-4.724-13.912-11.504-18.419-20.343-4.508-8.838-6.762-19.428-6.762-31.771 0-12.8 2.41-23.619 7.228-32.457 4.819-8.838 11.269-15.543 19.352-20.114 8.083-4.724 16.943-7.086 26.58-7.086 9.948 0 18.341 2.667 25.18 8 6.84 5.333 11.425 12.267 13.757 20.8l-2.798 2.514V82.5h24.947v165.714h-22.149l-1.866-31.085 3.265.228c-1.089 6.857-3.653 12.8-7.695 17.829-4.041 4.876-9.093 8.685-15.155 11.428-5.906 2.591-12.279 3.886-19.118 3.886Zm5.362-19.657c6.684 0 12.435-1.676 17.254-5.029 4.818-3.352 8.549-8.076 11.191-14.171 2.643-6.095 3.964-13.41 3.964-21.943 0-7.924-1.321-14.705-3.964-20.343-2.642-5.79-6.373-10.209-11.191-13.257-4.663-3.048-10.104-4.571-16.321-4.571-10.415 0-18.497 3.504-24.248 10.514-5.752 7.009-8.627 16.686-8.627 29.028 0 12.343 2.798 22.096 8.393 29.258 5.596 7.009 13.446 10.514 23.549 10.514Zm96.654-116.114c-5.44 0-9.637-1.296-12.59-3.886-2.798-2.743-4.197-6.553-4.197-11.429s1.399-8.61 4.197-11.2c2.953-2.59 7.15-3.885 12.59-3.885 5.285 0 9.326 1.295 12.124 3.885 2.954 2.59 4.43 6.324 4.43 11.2 0 4.876-1.476 8.686-4.43 11.429-2.798 2.59-6.839 3.886-12.124 3.886Zm12.358 19.2v114.285h-24.948V133.929h24.948Zm98.425 40.914c0-7.619-2.176-13.486-6.529-17.6-4.196-4.267-10.025-6.4-17.486-6.4-6.995 0-12.979 1.6-17.953 4.8-4.974 3.2-8.627 8.381-10.959 15.543l-20.984-8.686c2.954-9.295 8.705-16.762 17.254-22.4 8.704-5.638 19.896-8.457 33.574-8.457 9.326 0 17.565 1.524 24.715 4.571 7.15 2.896 12.746 7.315 16.787 13.257 4.199 5.943 6.299 13.562 6.299 22.858V223.3c0 5.638 2.87 8.457 8.62 8.457 2.8 0 5.52-.381 8.16-1.143l-1.4 16.915c-3.57 1.676-8.08 2.514-13.52 2.514-4.97 0-9.48-.838-13.522-2.514-3.886-1.829-6.994-4.496-9.326-8-2.176-3.658-3.264-8.153-3.264-13.486v-1.6l5.129-.229c-1.399 5.943-4.274 10.896-8.626 14.857-4.353 3.81-9.404 6.705-15.155 8.686-5.752 1.829-11.581 2.743-17.487 2.743-7.306 0-13.912-1.143-19.818-3.429-5.752-2.285-10.337-5.714-13.756-10.285-3.265-4.724-4.897-10.515-4.897-17.372 0-8.533 2.798-15.543 8.394-21.028 5.751-5.486 13.834-9.219 24.248-11.2l45.232-8.686-.233 17.143-32.875 6.628c-6.528 1.219-11.425 2.972-14.689 5.258-3.264 2.285-4.896 5.638-4.896 10.057 0 4.266 1.632 7.695 4.896 10.285 3.42 2.439 7.928 3.658 13.523 3.658 3.886 0 7.617-.458 11.192-1.372 3.73-.914 7.072-2.362 10.025-4.343 2.954-2.133 5.208-4.8 6.762-8 1.71-3.352 2.565-7.314 2.565-11.885v-31.086ZM1058.49 82.5v133.714c0 5.638 1.01 9.524 3.03 11.657 2.02 2.134 5.36 3.2 10.02 3.2 2.8 0 5.13-.152 7-.457 2.02-.457 4.51-1.219 7.46-2.285l-2.8 18.285c-2.64 1.219-5.67 2.134-9.09 2.743a47.049 47.049 0 0 1-10.26 1.143c-10.41 0-18.11-2.59-23.08-7.771-4.82-5.334-7.23-13.486-7.23-24.458V82.5h24.95Z"/>
    <path fill-rule="evenodd" clip-rule="evenodd" d="M170.535 97.2c-.145-.009-.33-.016-.547-.021-1.942-.05-6.435.008-7.973-.031 1.435.035 5.914-.025 7.973.03.209.006.394.013.547.022Z"/>
    <path fill-rule="evenodd" clip-rule="evenodd" d="M4.715 188.447c0-61.535 69.224-111.734 154.27-111.734 7.706 0 15.281.41 22.686 1.203a488.722 488.722 0 0 0 24.928-52.236c2.453-6.038 12.44-4.318 12.44 2.2v57.629c55.432 16.997 94.351 56.778 94.216 102.938 0 61.534-69.224 111.553-154.27 111.553S4.715 249.981 4.715 188.447Zm19.958 0c0-50.559 63.106-91.304 137.185-91.304-1.212-.024 1.359.008.157.005-.045 0-.097-.005-.157-.005-.899-.032.722.015.157.005-.045 0-.097-.005-.157-.005l.157.005c1.435.035 5.914-.025 7.973.03.209.006.394.013.547.022a474.4 474.4 0 0 1-85.204 102.443c-8.02 7.266-17.388 12.85-27.397 16.967l-21.756 8.947c-7.394-11.345-11.505-23.902-11.505-37.11Zm268.624 0c0 50.558-60.234 91.581-134.312 91.581-45.025 0-84.935-15.154-109.315-38.394l155.234-64.089a22.858 22.858 0 0 0 14.135-21.131v-49.889c43.999 15.043 74.258 46.087 74.258 81.922Z"/>
  </g>
</svg>
